<?xml version="1.0" encoding="UTF-8" standalone="no"?>
<svg
   xmlns:dc="http://purl.org/dc/elements/1.1/"
   xmlns:cc="http://creativecommons.org/ns#"
   xmlns:rdf="http://www.w3.org/1999/02/22-rdf-syntax-ns#"
   xmlns:svg="http://www.w3.org/2000/svg"
   xmlns="http://www.w3.org/2000/svg"
   xmlns:sodipodi="http://sodipodi.sourceforge.net/DTD/sodipodi-0.dtd"
   xmlns:inkscape="http://www.inkscape.org/namespaces/inkscape"
   aria-hidden="true"
   focusable="false"
   data-prefix="fas"
   data-icon="robot"
   class="svg-inline--fa fa-robot fa-w-20"
   role="img"
   viewBox="0 0 640 512"
   version="1.1"
   id="svg4"
   sodipodi:docname="robot-solid.svg"
   inkscape:version="0.92.2 (5c3e80d, 2017-08-06)">
  <metadata
     id="metadata10">
    <rdf:RDF>
      <cc:Work
         rdf:about="">
        <dc:format>image/svg+xml</dc:format>
        <dc:type
           rdf:resource="http://purl.org/dc/dcmitype/StillImage" />
      </cc:Work>
    </rdf:RDF>
  </metadata>
  <defs
     id="defs8" />
  <sodipodi:namedview
     pagecolor="#ffffff"
     bordercolor="#666666"
     borderopacity="1"
     objecttolerance="10"
     gridtolerance="10"
     guidetolerance="10"
     inkscape:pageopacity="0"
     inkscape:pageshadow="2"
     inkscape:window-width="1366"
     inkscape:window-height="705"
     id="namedview6"
     showgrid="false"
     inkscape:zoom="0.44375"
     inkscape:cx="291.83099"
     inkscape:cy="256"
     inkscape:window-x="-8"
     inkscape:window-y="-8"
     inkscape:window-maximized="1"
     inkscape:current-layer="svg4" />
  <path
     fill="currentColor"
     d="M32,224H64V416H32A31.96166,31.96166,0,0,1,0,384V256A31.96166,31.96166,0,0,1,32,224Zm512-48V448a64.06328,64.06328,0,0,1-64,64H160a64.06328,64.06328,0,0,1-64-64V176a79.974,79.974,0,0,1,80-80H288V32a32,32,0,0,1,64,0V96H464A79.974,79.974,0,0,1,544,176ZM264,256a40,40,0,1,0-40,40A39.997,39.997,0,0,0,264,256Zm-8,128H192v32h64Zm96,0H288v32h64ZM456,256a40,40,0,1,0-40,40A39.997,39.997,0,0,0,456,256Zm-8,128H384v32h64ZM640,256V384a31.96166,31.96166,0,0,1-32,32H576V224h32A31.96166,31.96166,0,0,1,640,256Z"
     id="path2" />
  <path
     style="fill:#ffffff;fill-opacity:1;stroke-width:2.2535212"
     d="m 141.68635,507.75428 c -21.11487,-6.58939 -38.10196,-24.84555 -43.019287,-46.23315 -3.722783,-16.192 -3.165255,-286.20432 0.624204,-302.30411 5.835273,-24.79158 22.097123,-44.38029 46.241103,-55.70116 12.64502,-5.929117 12.76781,-5.939513 78.58031,-6.654425 l 65.91549,-0.716031 0.008,-36.467067 c 0.007,-32.19303 0.524,-37.312633 4.40739,-43.681608 12.10743,-19.8568451 42.80409,-18.5636989 52.66597,2.218638 3.01559,6.354932 3.76329,14.9146 3.76329,43.082952 v 35.152385 h 59.24484 c 66.99056,0 78.14657,1.681821 97.94315,14.765406 13.9239,9.20231 23.4178,21.50664 29.84135,38.67511 4.54127,12.13765 4.62725,15.66532 4.0169,164.8334 l -0.62371,152.43031 -6.18129,10.51502 c -8.28872,14.09994 -22.72548,26.04333 -36.38281,30.09913 -15.88861,4.7184 -341.92168,4.7049 -357.04532,-0.0158 z M 256.22535,399.5493 V 382.64789 H 223.5493 190.87324 v 16.90141 16.9014 h 32.67606 32.67605 z m 96.90141,0 V 382.64789 H 320.4507 287.77465 v 16.90141 16.9014 h 32.67605 32.67606 z m 96.90141,0 v -16.90141 h -33.80282 -33.80281 v 16.90141 16.9014 h 33.80281 33.80282 z M 242.14143,292.23403 c 23.98983,-11.61328 29.95006,-42.2197 12.30534,-63.18925 -15.75479,-18.7235 -49.47794,-17.17824 -63.79132,2.92306 -5.39675,7.57902 -8.26342,26.33456 -5.62924,36.82997 0.79991,3.18707 5.0978,9.82752 9.55088,14.75656 12.50657,13.84326 30.22037,17.07574 47.56434,8.67966 z m 189.28509,1.31382 c 11.1749,-4.66916 16.20045,-9.47389 21.12395,-20.19574 13.0317,-28.37904 -6.07284,-57.46479 -37.74488,-57.46479 -21.44566,0 -39.14362,17.64812 -39.14362,39.03336 0,18.52405 7.37584,30.31763 23.66197,37.83416 11.05616,5.10274 21.18889,5.35304 32.10258,0.79301 z"
     id="path5962"
     inkscape:connector-curvature="0" />
  <path
     style="fill:#ffffff;fill-opacity:1;stroke-width:2.2535212"
     d="M 15.771377,409.78137 C 1.5577028,401.11479 1.3322688,399.59691 2.0535694,317.41751 l 0.650656,-74.13074 5.6338028,-6.02652 C 17.621444,227.32973 24.683953,224.90141 44.282456,224.90141 h 18.140079 v 94.64789 94.64788 l -19.71831,-0.008 c -15.58016,-0.007 -21.232376,-0.93161 -26.932848,-4.40739 z"
     id="path5964"
     inkscape:connector-curvature="0" />
  <path
     style="fill:#ffffff;fill-opacity:1;stroke-width:2.2535212"
     d="m 576.22535,319.33176 v -94.86542 l 21.2486,0.78092 c 23.9491,0.88016 30.92895,4.16587 37.90283,17.84251 3.49537,6.85485 3.94055,15.4693 3.94366,76.31142 0.003,63.73718 -0.31164,69.23528 -4.45567,77.7957 -6.68598,13.8114 -13.84063,17.00029 -38.14205,17.00029 h -20.49737 z"
     id="path5966"
     inkscape:connector-curvature="0" />
</svg>
